<?xml version="1.0" encoding="utf-8"?>
<!-- Generator: Adobe Illustrator 28.1.0, SVG Export Plug-In . SVG Version: 6.00 Build 0)  -->
<svg version="1.1" id="Ebene_1" xmlns="http://www.w3.org/2000/svg" xmlns:xlink="http://www.w3.org/1999/xlink" x="0px" y="0px"
	 viewBox="0 0 700 700" style="enable-background:new 0 0 700 700;" xml:space="preserve">
<style type="text/css">
	.st0{fill:none;}
	.st1{fill:#FFFFFF;}
</style>
<g>
	<path class="st0" d="M-14.5-15.1c243.7,0,487.3,0,731,0c0,243.3,0,486.7,0,730c-243.7,0-487.3,0-731,0c-0.1-2.3-0.2-4.6-0.2-7
		c0-238.8,0-477.7,0-716.5C-14.7-10.8-14.6-12.9-14.5-15.1z M440.3,372.1c1-0.9,1.6-1.3,2.2-1.9c14.3-14.2,28.6-28.4,42.7-42.8
		c13.2-13.4,13.2-33.2-0.2-46.6c-42.4-42.5-84.8-84.9-127.2-127.2c-13.6-13.5-33.3-13.5-46.9,0.1C253.5,210.9,196.2,268.1,139,325.4
		c-13.7,13.8-13.7,33.5,0.1,47.3c42.2,42.3,84.5,84.6,126.9,126.8c13.4,13.3,33,13.4,46.7,0.4c4.8-4.6,9.4-9.4,14.2-14.1
		c15.5-15.4,30.9-30.8,46.5-46.2c-6.3-14.3-12.5-28.3-18.8-42.5c-10.7,6-21.5,9.8-33.2,11.3c-55.4,7-102.4-44.5-90.4-99
		c9.5-42.9,49-70.5,92.6-64.5c36.7,5,66,34.7,70,71.1c0.3,2.7,1.1,4.1,3.9,4.7c15.8,2.9,25.8,12.8,32.1,27.1
		C433.1,355.6,436.6,363.7,440.3,372.1z M390.3,442.7c-22.2,22.2-44.1,44.1-66,65.9c-20.7,20.6-48.9,20.5-69.7-0.2
		c-19.9-19.9-39.8-39.8-59.7-59.7c-1.2-1.2-2.6-2.4-4.4-4.1c-0.1,2.4-0.3,4-0.3,5.6c0,12.3,0,24.7,0,37c0,15.8-0.2,31.7,0.1,47.5
		c0.3,18.8,11.2,29.3,29.7,29.3c44.6,0,89.3-0.1,133.9,0.1c9.2,0,16.7-3,23-9.9c22.9-24.7,45.8-49.3,69.1-73.6
		c8.6-8.9,11.5-19.3,9.7-30.6c-1.3-8.2-4.6-16.2-7.9-24c-10.5-25-21.3-49.8-32.3-74.6c-4.4-9.9-12.1-16.6-23.3-17
		c-11.1-0.4-18.9,5.8-24,15.1c-7.4,13.5-7.1,27.3-0.8,41.3C375,407.8,382.5,425,390.3,442.7z M284,635.8c22.1,0,44.3-0.2,66.4,0.1
		c10.7,0.1,18.2-4.7,23-13.8c4.5-8.4,5.3-17.5,2.7-26.7c-3.2-11.4-11.2-20.8-27.4-20.6c-43.6,0.5-87.2,0.2-130.9,0.1
		c-9.4,0-16.3,3.9-21.1,11.8c-4.6,7.5-6,15.8-4.6,24.5c2.7,16.7,12,24.6,28.9,24.6C242,635.8,263,635.8,284,635.8z M437.6,65.9
		c-1.3,0-2.7,0-4,0c-8.4,0-13.9,4.7-14.2,12.1c-0.3,7.6,5.1,12.8,13.6,13.3c6.1,0.4,12.4,0.6,18.4,1.8c43.5,8.6,73.2,33.8,89,75.3
		c4.5,11.8,6.1,24.1,6.4,36.7c0.2,8.4,6,14,13.4,13.7c7.4-0.3,12.9-5.9,12.2-14.1c-1-11.7-2.1-23.6-4.9-35
		C553,111.1,498.1,67.5,437.6,65.9z M254.3,330.2c0,40.5,42.4,66.3,78.5,47.7c19.9-10.2,31.8-33.3,28.4-55c-1-6.3-5-9.8-10.8-9.4
		c-5.5,0.4-8.9,4.5-8.8,10.6c0,3,0.3,6,0.2,9c-1,18.5-17.8,32.4-37.2,30.8c-17.9-1.4-32.2-18.6-30.5-36.3c2-20.1,17.7-32.8,38.4-31
		c6.8,0.6,11.7-2.9,12.2-8.8c0.5-6-3.4-10.2-10.3-11C281.9,273.3,254.3,297.8,254.3,330.2z M435.1,113c-9.4-0.2-15.3,4.5-15.6,12.3
		c-0.3,8.1,5.3,13.1,15,13.5c21.3,0.9,38.4,10,51.3,26.8c9.1,11.8,13.5,25.4,13.7,40.4c0.1,7.1,5.4,12.4,12.2,12.8
		c6.6,0.3,12.2-4.2,13.1-11.1c0.4-3.4-0.1-7-0.3-10.4C520.8,151.2,481.2,113.9,435.1,113z M399.3,176.3
		c20.8,20.9,41.7,41.7,62.5,62.6c15.1-15.4,14.1-43.5-2.6-60.1C442.8,162.3,414.6,161.3,399.3,176.3z M356,292.3
		c-0.2-5.8-2.2-8.8-6-10.5c-4.2-1.8-7.9-0.7-11,2.4c-9.3,9.2-18.7,18.5-27.9,27.8c-4.2,4.3-4.1,10.5-0.2,14.3
		c4.1,3.9,9.8,3.9,14.2-0.5c9.2-9.1,18.4-18.2,27.4-27.5C354.5,296.3,355.3,293.5,356,292.3z"/>
	<path class="st0" d="M-14.5-15.1c-0.1,2.2-0.3,4.3-0.3,6.5c0,238.8,0,477.7,0,716.5c0,2.3,0.2,4.6,0.2,7c-0.3-0.2-0.9-0.3-1-0.5
		c-0.1-1.3,0-2.7,0-4c0-240.3,0-480.7,0-721C-15.5-12.1-14.8-13.6-14.5-15.1z"/>
	<path class="st1" d="M440.3,372.1c-3.7-8.4-7.2-16.4-10.7-24.5c-6.3-14.3-16.3-24.2-32.1-27.1c-2.8-0.5-3.6-1.9-3.9-4.7
		c-4-36.4-33.4-66.1-70-71.1c-43.6-6-83.1,21.6-92.6,64.5c-12,54.5,35,105.9,90.4,99c11.7-1.5,22.6-5.2,33.2-11.3
		c6.3,14.2,12.5,28.2,18.8,42.5c-15.5,15.4-31,30.8-46.5,46.2c-4.7,4.7-9.4,9.5-14.2,14.1c-13.6,13-33.3,13-46.7-0.4
		c-42.4-42.2-84.7-84.5-126.9-126.8c-13.8-13.8-13.8-33.6-0.1-47.3c57.2-57.3,114.5-114.5,171.8-171.7c13.6-13.6,33.4-13.6,46.9-0.1
		c42.5,42.3,84.9,84.7,127.2,127.2c13.3,13.4,13.4,33.1,0.2,46.6c-14.1,14.4-28.5,28.5-42.7,42.8
		C441.9,370.7,441.3,371.2,440.3,372.1z"/>
	<path class="st1" d="M390.3,442.7c-7.8-17.6-15.3-34.9-23-52c-6.3-13.9-6.6-27.8,0.8-41.3c5.1-9.4,12.9-15.6,24-15.1
		c11.2,0.4,18.9,7.1,23.3,17c11,24.8,21.8,49.6,32.3,74.6c3.3,7.7,6.6,15.8,7.9,24c1.8,11.3-1.1,21.7-9.7,30.6
		c-23.3,24.2-46.2,48.9-69.1,73.6c-6.3,6.8-13.8,9.9-23,9.9c-44.6-0.1-89.3-0.1-133.9-0.1c-18.5,0-29.3-10.5-29.7-29.3
		c-0.3-15.8-0.1-31.7-0.1-47.5c0-12.3,0-24.7,0-37c0-1.6,0.1-3.2,0.3-5.6c1.9,1.7,3.2,2.9,4.4,4.1c19.9,19.9,39.7,39.9,59.7,59.7
		c20.8,20.7,48.9,20.8,69.7,0.2C346.3,486.7,368.1,464.8,390.3,442.7z"/>
	<path class="st1" d="M284,635.8c-21,0-42,0-62.9,0c-16.9,0-26.2-7.9-28.9-24.6c-1.4-8.7,0-16.9,4.6-24.5
		c4.8-7.8,11.7-11.8,21.1-11.8c43.6,0.1,87.2,0.4,130.9-0.1c16.1-0.2,24.1,9.2,27.4,20.6c2.6,9.2,1.8,18.2-2.7,26.7
		c-4.8,9.1-12.3,13.9-23,13.8C328.3,635.6,306.1,635.8,284,635.8z"/>
	<path class="st1" d="M437.6,65.9c60.4,1.6,115.4,45.2,129.9,103.8c2.8,11.4,3.9,23.2,4.9,35c0.7,8.2-4.8,13.8-12.2,14.1
		c-7.4,0.3-13.2-5.3-13.4-13.7c-0.3-12.6-1.9-24.9-6.4-36.7c-15.8-41.4-45.4-66.7-89-75.3c-6-1.2-12.2-1.4-18.4-1.8
		c-8.5-0.6-13.9-5.7-13.6-13.3c0.3-7.4,5.7-12.1,14.2-12.1C435,65.8,436.3,65.9,437.6,65.9z"/>
	<path class="st1" d="M254.3,330.2c0-32.4,27.7-56.9,60.1-53.3c6.9,0.8,10.8,5,10.3,11c-0.5,5.8-5.4,9.3-12.2,8.8
		c-20.7-1.7-36.4,11-38.4,31c-1.8,17.7,12.6,34.8,30.5,36.3c19.4,1.6,36.2-12.3,37.2-30.8c0.2-3-0.1-6-0.2-9
		c-0.1-6.1,3.3-10.2,8.8-10.6c5.8-0.4,9.8,3,10.8,9.4c3.4,21.7-8.4,44.8-28.4,55C296.7,396.5,254.3,370.7,254.3,330.2z"/>
	<path class="st1" d="M435.1,113c46,0.9,85.7,38.2,89.4,84.2c0.3,3.5,0.8,7,0.3,10.4c-0.9,6.9-6.6,11.5-13.1,11.1
		c-6.8-0.4-12.1-5.6-12.2-12.8c-0.2-15-4.6-28.5-13.7-40.4c-12.9-16.8-30-25.9-51.3-26.8c-9.7-0.4-15.3-5.4-15-13.5
		C419.8,117.5,425.7,112.8,435.1,113z"/>
	<path class="st1" d="M399.3,176.3c15.3-14.9,43.5-14,60,2.5c16.7,16.6,17.7,44.7,2.6,60.1C441,218,420.2,197.1,399.3,176.3z"/>
	<path class="st1" d="M356,292.3c-0.7,1.2-1.5,4-3.4,5.9c-9,9.3-18.2,18.5-27.4,27.5c-4.5,4.4-10.2,4.4-14.2,0.5
		c-4-3.8-4.1-10,0.2-14.3c9.2-9.4,18.5-18.6,27.9-27.8c3.1-3.1,6.8-4.1,11-2.4C353.9,283.5,355.8,286.5,356,292.3z"/>
</g>
</svg>
