<?xml version="1.0" encoding="UTF-8"?>
<svg id="Ebene_2" data-name="Ebene 2" xmlns="http://www.w3.org/2000/svg" viewBox="0 0 442.74 442.59">
  <defs>
    <style>
      .cls-1 {
        fill: red;
      }
    </style>
  </defs>
  <g id="Ebene_1-2" data-name="Ebene 1">
    <path class="cls-1" d="M311.56,305.29c-3.7-8.4-7.2-16.4-10.7-24.5-6.3-14.3-16.3-24.2-32.1-27.1-2.8-.5-3.6-1.9-3.9-4.7-4-36.4-33.4-66.1-70-71.1-43.6-6-83.1,21.6-92.6,64.5-12,54.5,35,105.9,90.4,99,11.7-1.5,22.6-5.2,33.2-11.3,6.3,14.2,12.5,28.2,18.8,42.5-15.5,15.4-31,30.8-46.5,46.2-4.7,4.7-9.4,9.5-14.2,14.1-13.6,13-33.3,13-46.7-.4-42.4-42.2-84.7-84.5-126.9-126.8-13.8-13.8-13.8-33.6-.1-47.3,57.2-57.3,114.5-114.5,171.8-171.7,13.6-13.6,33.4-13.6,46.9-.1,42.5,42.3,84.9,84.7,127.2,127.2,13.3,13.4,13.4,33.1.2,46.6-14.1,14.4-28.5,28.5-42.7,42.8-.5.7-1.1,1.2-2.1,2.1Z"/>
    <path class="cls-1" d="M307.88.04c60.4,1.6,115.4,45.2,129.9,103.8,2.8,11.4,3.9,23.2,4.9,35,.7,8.2-4.8,13.8-12.2,14.1s-13.2-5.3-13.4-13.7c-.3-12.6-1.9-24.9-6.4-36.7-15.8-41.4-45.4-66.7-89-75.3-6-1.2-12.2-1.4-18.4-1.8-8.5-.6-13.9-5.7-13.6-13.3.3-7.4,5.7-12.1,14.2-12.1,1.4-.1,2.7,0,4,0Z"/>
    <path class="cls-1" d="M304.32,47.97c46,.9,85.7,38.2,89.4,84.2.3,3.5.8,7,.3,10.4-.9,6.9-6.6,11.5-13.1,11.1-6.8-.4-12.1-5.6-12.2-12.8-.2-15-4.6-28.5-13.7-40.4-12.9-16.8-30-25.9-51.3-26.8-9.7-.4-15.3-5.4-15-13.5.3-7.7,6.2-12.4,15.6-12.2Z"/>
    <path class="cls-1" d="M273.56,103.27c15.3-14.9,43.5-14,60,2.5,16.7,16.6,17.7,44.7,2.6,60.1-20.9-20.9-41.7-41.8-62.6-62.6Z"/>
  </g>
</svg>