<?xml version="1.0" encoding="UTF-8"?>
<svg id="Ebene_2" data-name="Ebene 2" xmlns="http://www.w3.org/2000/svg" viewBox="0 0 107.48 107.73">
  <defs>
    <style>
      .cls-1 {
        fill: red;
      }
    </style>
  </defs>
  <g id="Ebene_1-2" data-name="Ebene 1">
    <path class="cls-1" d="M0,53.83C0,21.43,27.7-3.07,60.1.53c6.9.8,10.8,5,10.3,11-.5,5.8-5.4,9.3-12.2,8.8-20.7-1.7-36.4,11-38.4,31-1.8,17.7,12.6,34.8,30.5,36.3,19.4,1.6,36.2-12.3,37.2-30.8.2-3-.1-6-.2-9-.1-6.1,3.3-10.2,8.8-10.6,5.8-.4,9.8,3,10.8,9.4,3.4,21.7-8.4,44.8-28.4,55C42.4,120.13,0,94.33,0,53.83Z"/>
    <path class="cls-1" d="M106.97,11.42c-.7,1.2-1.5,4-3.4,5.9-9,9.3-18.2,18.5-27.4,27.5-4.5,4.4-10.2,4.4-14.2.5-4-3.8-4.1-10,.2-14.3,9.2-9.4,18.5-18.6,27.9-27.8,3.1-3.1,6.8-4.1,11-2.4,3.8,1.8,5.7,4.8,5.9,10.6Z"/>
  </g>
</svg>