<?xml version="1.0" encoding="UTF-8"?>
<svg id="Ebene_2" data-name="Ebene 2" xmlns="http://www.w3.org/2000/svg" viewBox="0 0 266.08 305.73">
  <defs>
    <style>
      .cls-1 {
        fill: red;
      }
    </style>
  </defs>
  <g id="Ebene_1-2" data-name="Ebene 1">
    <path class="cls-1" d="M200.27,108.43c-7.8-17.6-15.3-34.9-23-52-6.3-13.9-6.6-27.8.8-41.3C183.17,5.73,190.97-.47,202.07.03c11.2.4,18.9,7.1,23.3,17,11,24.8,21.8,49.6,32.3,74.6,3.3,7.7,6.6,15.8,7.9,24,1.8,11.3-1.1,21.7-9.7,30.6-23.3,24.2-46.2,48.9-69.1,73.6-6.3,6.8-13.8,9.9-23,9.9-44.6-.1-89.3-.1-133.9-.1-18.5,0-29.3-10.5-29.7-29.3-.3-15.8-.1-31.7-.1-47.5v-37c0-1.6.1-3.2.3-5.6,1.9,1.7,3.2,2.9,4.4,4.1,19.9,19.9,39.7,39.9,59.7,59.7,20.8,20.7,48.9,20.8,69.7.2,22.1-21.8,43.9-43.7,66.1-65.8Z"/>
    <path class="cls-1" d="M93.93,305.63H31.03c-16.9,0-26.2-7.9-28.9-24.6-1.4-8.7,0-16.9,4.6-24.5,4.8-7.8,11.7-11.8,21.1-11.8,43.6.1,87.2.4,130.9-.1,16.1-.2,24.1,9.2,27.4,20.6,2.6,9.2,1.8,18.2-2.7,26.7-4.8,9.1-12.3,13.9-23,13.8-22.2-.3-44.4-.1-66.5-.1Z"/>
  </g>
</svg>